# xmcd
#
# Track frame offsets:
#	150
#	13993
#	24835
#	40215
#	54019
#	65011
#	76642
#	86847
#	98514
#	112562
#	124567
#	141109
#	155888
#	166956
#	177873
#
# Disc length: 2596 seconds
#
# Revision: 0
# Processed by: cddbd v1.5.2PL0 Copyright (c) Steve Scherf et al.
# Submitted via: audiograbber 1.83.01
#
DISCID=ac0a220f
DTITLE=Gottlieb Weissbacher - 15 orginal Hits
DYEAR=1900
DGENRE=Volksmusik
TTITLE0=Zürser Klänge
TTITLE1=Gmütlich is
TTITLE2=Späte Rosen
TTITLE3=Liesi Walzer
TTITLE4=Hafelekar Marsch
TTITLE5=An der Waldgrenze
TTITLE6=Gute Fahrt
TTITLE7=Gruß vom Stubaital
TTITLE8=Schöne Stunden
TTITLE9=Frohe Fahrt
TTITLE10=Weißwurst Polka
TTITLE11=Serles Polka
TTITLE12=Blumen aus Tirol
TTITLE13=Inntaler Polka
TTITLE14=Brennersee Walzer
EXTD=
EXTT0=
EXTT1=
EXTT2=
EXTT3=
EXTT4=
EXTT5=
EXTT6=
EXTT7=
EXTT8=
EXTT9=
EXTT10=
EXTT11=
EXTT12=
EXTT13=
EXTT14=
PLAYORDER=
